<?xml version="1.0" standalone="no"?>
<!DOCTYPE svg PUBLIC "-//W3C//DTD SVG 20010904//EN"
 "http://www.w3.org/TR/2001/REC-SVG-20010904/DTD/svg10.dtd">
<svg version="1.0" xmlns="http://www.w3.org/2000/svg"
 width="2357.000000pt" height="2357.000000pt" viewBox="0 0 2357.000000 2357.000000"
 preserveAspectRatio="xMidYMid meet">
<metadata>
Created by potrace 1.14, written by Peter Selinger 2001-2017
</metadata>
<g transform="translate(0.000000,2357.000000) scale(0.100000,-0.100000)"
fill="#000000" stroke="none">
<path d="M5449 22696 c-2 -2 -26 -6 -54 -9 -73 -9 -93 -15 -164 -50 -122 -60
-191 -140 -285 -327 -27 -52 -51 -99 -56 -105 -4 -5 -40 -73 -80 -150 -40 -77
-90 -171 -110 -210 -20 -38 -63 -119 -95 -180 -32 -60 -74 -141 -95 -180 -21
-38 -65 -124 -100 -190 -34 -66 -84 -160 -110 -210 -26 -49 -71 -135 -100
-190 -29 -55 -69 -131 -90 -170 -21 -38 -65 -122 -97 -185 -99 -189 -173 -331
-214 -407 -21 -40 -66 -125 -100 -190 -34 -65 -74 -140 -89 -168 -15 -27 -58
-108 -95 -180 -77 -148 -148 -284 -210 -400 -66 -125 -144 -272 -191 -363 -37
-72 -89 -213 -108 -293 -24 -107 -28 -341 -7 -454 22 -115 77 -267 133 -364
28 -50 97 -148 152 -218 55 -71 182 -234 283 -363 101 -129 189 -242 196 -250
7 -8 40 -51 75 -95 34 -44 148 -190 254 -325 105 -135 234 -299 286 -365 51
-66 99 -127 105 -135 7 -8 77 -98 156 -200 80 -102 147 -187 150 -190 3 -3 33
-41 66 -84 33 -43 64 -84 70 -90 6 -6 33 -40 60 -76 27 -36 55 -72 62 -80 15
-18 278 -355 331 -424 20 -26 42 -53 47 -60 10 -11 251 -318 330 -421 103
-133 360 -461 370 -471 5 -6 21 -26 35 -44 43 -58 494 -635 499 -640 4 -3 26
-32 51 -65 25 -33 47 -62 51 -65 3 -3 197 -250 431 -550 452 -578 515 -650
658 -747 104 -71 281 -148 385 -168 195 -38 309 -40 485 -10 56 9 112 24 400
108 124 37 317 93 430 126 113 33 320 93 460 134 140 41 444 130 675 196 231
67 438 128 460 136 22 8 65 20 95 28 69 19 221 63 930 270 311 91 597 175 635
185 39 11 277 81 531 155 401 118 514 151 559 163 6 2 204 60 440 129 529 155
742 217 1045 305 129 38 298 87 375 110 77 23 147 43 155 45 8 2 139 40 290
85 151 45 304 89 340 99 36 10 169 49 295 86 304 89 532 155 685 199 121 35
209 60 260 77 30 9 107 32 325 95 88 25 196 57 240 70 44 13 190 56 325 95
267 78 349 107 484 175 273 137 518 354 696 614 42 62 111 186 225 405 85 163
154 295 220 420 23 44 77 148 120 230 43 83 98 188 123 235 25 47 71 135 102
195 69 133 173 332 227 435 22 41 71 134 108 205 37 72 87 166 110 210 23 44
69 132 102 195 77 146 161 307 228 435 29 55 81 154 115 220 35 66 82 156 105
200 80 151 163 310 212 405 28 52 72 138 100 190 249 474 260 500 261 652 2
222 -107 418 -302 543 -30 19 -61 35 -69 35 -7 0 -17 4 -22 9 -28 25 -147 46
-255 44 -60 -1 -120 -15 -305 -68 -126 -36 -237 -68 -245 -70 -8 -2 -46 -13
-85 -25 -38 -12 -77 -23 -85 -25 -37 -9 -789 -226 -820 -236 -19 -7 -48 -16
-65 -20 -16 -4 -100 -27 -185 -52 -85 -25 -319 -93 -520 -151 -1061 -306
-1265 -365 -1600 -463 -201 -58 -387 -111 -415 -119 -63 -16 -312 -88 -385
-111 -30 -9 -59 -18 -65 -19 -5 -1 -98 -28 -205 -59 -107 -31 -294 -85 -415
-120 -121 -35 -323 -94 -450 -130 -126 -37 -255 -74 -285 -82 -30 -8 -136 -39
-235 -68 -99 -29 -247 -72 -330 -95 -82 -23 -161 -45 -175 -50 -14 -5 -176
-53 -360 -105 -184 -53 -389 -112 -455 -132 -66 -19 -133 -39 -150 -43 -85
-24 -186 -53 -330 -95 -158 -46 -229 -67 -362 -104 -38 -10 -115 -33 -173 -50
-58 -18 -114 -34 -125 -36 -11 -3 -49 -14 -85 -24 -36 -11 -81 -24 -100 -30
-66 -19 -582 -168 -920 -266 -146 -42 -278 -81 -295 -85 -105 -30 -433 -124
-780 -225 -126 -37 -239 -70 -250 -73 -11 -2 -80 -22 -154 -43 -74 -22 -135
-39 -136 -39 -2 0 -62 76 -303 385 -90 116 -177 226 -192 245 -15 19 -98 125
-184 235 -202 258 -185 237 -263 336 -37 47 -78 99 -90 115 -12 16 -31 40 -42
54 -11 14 -59 75 -106 135 -47 61 -91 117 -98 125 -18 22 -255 325 -302 385
-49 63 -205 264 -222 285 -57 72 -166 211 -313 400 -96 124 -177 227 -180 230
-6 5 -202 254 -235 299 -19 25 -163 210 -188 241 -7 8 -35 44 -62 80 -28 35
-58 73 -67 85 -17 20 -461 588 -552 705 -74 95 -315 403 -329 420 -7 8 -26 33
-42 55 -17 22 -34 45 -40 51 -5 6 -77 98 -160 205 -82 106 -177 221 -210 254
-87 87 -195 135 -336 149 -26 3 -48 4 -50 2z"/>
<path d="M14978 11985 c-2 -1 -29 -5 -61 -9 -73 -7 -79 -9 -282 -68 -93 -27
-177 -52 -185 -54 -37 -9 -384 -111 -719 -211 -107 -31 -181 -53 -201 -58 -8
-2 -62 -17 -120 -34 -151 -45 -682 -201 -700 -205 -23 -6 -661 -193 -775 -227
-55 -17 -107 -32 -115 -34 -8 -2 -27 -8 -42 -14 -16 -6 -28 -8 -28 -6 0 2 -12
0 -26 -5 -14 -6 -94 -30 -177 -54 -256 -75 -397 -116 -522 -153 -66 -19 -211
-61 -322 -94 -112 -32 -296 -86 -410 -120 -115 -33 -215 -62 -223 -64 -8 -2
-60 -18 -115 -35 -55 -16 -109 -32 -120 -35 -20 -4 -299 -86 -495 -145 -58
-17 -112 -33 -120 -35 -8 -2 -85 -24 -170 -49 -171 -50 -642 -188 -1065 -311
-82 -24 -190 -56 -240 -70 -49 -15 -160 -47 -245 -72 -85 -24 -276 -81 -425
-124 -148 -44 -277 -82 -285 -84 -8 -1 -78 -22 -155 -44 -77 -23 -162 -48
-190 -56 -27 -8 -149 -44 -270 -79 -412 -121 -570 -167 -585 -171 -8 -2 -62
-18 -120 -35 -104 -31 -220 -65 -460 -134 -325 -94 -416 -125 -547 -188 -86
-41 -240 -133 -293 -175 -129 -101 -244 -209 -315 -298 -22 -27 -50 -61 -62
-75 -13 -14 -23 -28 -23 -32 0 -3 -6 -13 -13 -20 -24 -24 -93 -142 -164 -278
-39 -74 -97 -184 -128 -245 -99 -190 -165 -316 -233 -445 -35 -69 -86 -165
-112 -215 -26 -49 -73 -139 -105 -200 -32 -60 -77 -146 -100 -190 -23 -44 -80
-152 -125 -240 -45 -88 -97 -187 -115 -220 -18 -33 -70 -132 -115 -220 -46
-88 -95 -182 -110 -210 -15 -27 -62 -117 -105 -200 -43 -82 -99 -190 -125
-240 -26 -49 -71 -135 -100 -190 -47 -91 -107 -205 -256 -490 -29 -55 -83
-158 -120 -230 -37 -71 -81 -155 -97 -185 -40 -75 -137 -261 -185 -356 -22
-44 -47 -100 -56 -126 -97 -292 46 -619 329 -755 91 -43 182 -62 287 -58 79 2
260 49 688 176 36 11 72 21 80 24 41 11 356 102 605 175 154 45 303 87 330 95
28 7 136 38 240 68 105 31 294 86 420 122 127 37 338 98 470 137 132 38 247
71 255 73 8 2 56 16 105 30 50 15 97 29 105 31 8 2 40 11 70 20 30 9 69 20 85
24 17 5 68 20 115 33 47 14 135 39 195 57 61 17 133 38 160 47 28 9 79 24 115
33 36 10 200 57 365 105 324 94 619 180 1035 300 146 42 326 95 400 116 74 22
142 42 150 44 46 11 403 115 409 119 4 3 18 7 32 10 13 2 112 30 219 61 462
134 576 166 590 170 8 1 38 10 65 19 28 8 205 60 395 115 190 55 401 116 470
136 69 20 188 54 265 76 77 22 176 51 220 64 76 23 194 57 260 75 17 4 156 45
310 89 353 103 894 260 1090 316 83 24 222 64 310 90 163 47 404 117 485 140
25 7 132 38 239 69 107 31 198 55 202 54 6 -2 139 -171 448 -567 14 -19 31
-39 36 -45 6 -6 40 -49 75 -96 36 -47 67 -87 70 -90 3 -3 62 -77 130 -165 69
-88 144 -185 168 -215 24 -30 49 -62 56 -70 6 -8 108 -139 226 -290 118 -151
220 -282 227 -290 7 -8 50 -63 95 -121 139 -178 292 -373 305 -389 18 -22 289
-367 326 -416 36 -46 195 -251 214 -274 7 -8 35 -44 63 -80 28 -36 56 -72 63
-80 7 -8 28 -35 47 -60 19 -25 40 -52 47 -60 6 -8 66 -85 133 -170 67 -85 132
-168 145 -185 13 -16 110 -140 215 -275 106 -135 206 -262 223 -284 18 -21 36
-46 41 -55 5 -8 18 -25 28 -36 10 -11 44 -53 76 -95 31 -41 61 -80 67 -86 5
-6 46 -57 90 -114 44 -56 114 -146 156 -199 41 -53 149 -190 238 -304 200
-255 262 -306 413 -342 131 -31 279 -10 393 55 76 44 162 133 204 212 18 34
60 115 93 178 33 63 75 142 93 175 18 33 56 105 85 160 29 55 79 152 112 215
33 63 82 157 109 208 52 97 117 222 198 375 26 50 71 135 98 187 28 52 79 149
113 215 35 66 80 152 100 190 20 39 65 124 100 190 35 66 77 147 95 180 18 33
61 114 95 180 146 281 184 353 210 400 15 28 67 127 115 220 48 94 91 175 95
180 24 32 221 430 238 480 71 207 87 458 41 628 -6 23 -13 51 -15 61 -13 70
-77 221 -127 301 -26 42 -87 126 -134 185 -6 8 -50 65 -98 125 -47 61 -91 117
-98 125 -7 8 -75 96 -152 195 -77 99 -148 189 -157 200 -9 11 -134 171 -278
355 -144 184 -269 344 -278 355 -9 11 -40 49 -68 85 -393 504 -610 781 -669
855 -39 50 -152 194 -250 320 -99 127 -182 232 -185 235 -3 3 -19 23 -36 45
-16 22 -56 74 -89 115 -33 42 -72 92 -87 111 -138 176 -342 437 -387 494 -31
39 -68 86 -83 105 -36 47 -803 1026 -833 1065 -144 182 -243 309 -275 350
-175 229 -339 431 -381 471 -46 42 -122 103 -175 141 -84 58 -305 150 -404
167 -19 3 -46 9 -60 12 -26 6 -276 14 -282 9z"/>
</g>
</svg>
